<svg xmlns="http://www.w3.org/2000/svg" xmlns:xlink="http://www.w3.org/1999/xlink" preserveAspectRatio="xMidYMid" width="1890" height="1417" viewBox="0 0 1890 1417">
  <defs>
    <style>
      .cls-1 {
        fill: #000;
        fill-rule: evenodd;
      }
    </style>
  </defs>
  <path d="M1354.540,164.000 L450.000,164.000 L450.000,1137.000 L1373.000,1137.000 L1373.000,164.000 L1354.540,164.000 ZM1336.080,202.920 C1336.080,239.439 1336.080,1061.561 1336.080,1098.080 C1301.438,1098.080 521.562,1098.080 486.920,1098.080 C486.920,1061.561 486.920,239.439 486.920,202.920 C521.562,202.920 1301.438,202.920 1336.080,202.920 Z" class="cls-1"/>
  <path d="M1240.340,314.000 L571.000,314.000 L571.000,990.000 L1254.000,990.000 L1254.000,314.000 L1240.340,314.000 ZM1226.680,341.040 C1226.680,366.412 1226.680,937.588 1226.680,962.960 C1201.046,962.960 623.954,962.960 598.320,962.960 C598.320,937.588 598.320,366.412 598.320,341.040 C623.954,341.040 1201.046,341.040 1226.680,341.040 Z" class="cls-1"/>
  <path d="M1667.840,70.000 L190.000,70.000 L190.000,1283.000 L1698.000,1283.000 L1698.000,70.000 L1667.840,70.000 ZM1637.680,118.520 C1637.680,164.046 1637.680,1188.954 1637.680,1234.480 C1581.082,1234.480 306.918,1234.480 250.320,1234.480 C250.320,1188.954 250.320,164.046 250.320,118.520 C306.918,118.520 1581.082,118.520 1637.680,118.520 Z" class="cls-1"/>
</svg>
