<svg xmlns="http://www.w3.org/2000/svg" xmlns:xlink="http://www.w3.org/1999/xlink" preserveAspectRatio="xMidYMid" width="250" height="250" viewBox="0 0 250 250">
  <defs>
    <style>
      .cls-1 {
        fill: #000;
        stroke: #000;
        stroke-width: 5px;
        fill-rule: evenodd;
      }
    </style>
  </defs>
  <path d="M222.997,62.073 L206.900,62.073 C204.861,62.073 203.110,60.901 202.319,59.215 C199.512,63.325 194.838,66.648 189.084,68.595 C190.696,102.624 196.269,220.624 196.269,220.777 C196.269,225.866 192.142,230.008 187.066,230.008 L165.825,230.008 C160.744,230.008 156.612,225.866 156.612,220.598 C156.612,220.598 162.242,101.260 163.816,68.009 C159.217,66.176 155.420,63.427 152.866,60.109 L152.866,69.029 C152.866,71.714 150.627,73.889 147.859,73.889 L130.001,73.889 C127.224,73.889 124.974,71.714 124.974,69.029 L124.974,31.506 C124.974,28.822 127.224,26.647 130.001,26.647 L147.859,26.647 C150.627,26.647 152.866,28.822 152.866,31.506 L152.866,40.489 C157.635,34.291 166.768,30.095 177.267,30.095 C187.978,30.095 197.258,34.450 201.945,40.843 C202.336,38.534 204.400,36.767 206.900,36.767 L222.997,36.767 C225.775,36.767 228.014,38.942 228.014,41.627 L228.014,57.214 C228.014,59.908 225.775,62.073 222.997,62.073 ZM181.604,70.241 C180.188,70.401 178.746,70.509 177.267,70.509 C175.210,70.509 173.212,70.337 171.282,70.032 C169.602,105.642 164.162,220.928 164.162,220.777 C164.162,221.693 164.910,222.440 165.825,222.440 L187.066,222.440 C187.976,222.440 188.719,221.693 188.719,220.777 C188.719,220.927 183.304,106.325 181.604,70.241 ZM89.136,221.352 L87.058,222.538 C86.559,222.822 74.687,229.508 62.589,229.508 C50.462,229.508 39.054,222.785 38.575,222.498 L36.565,221.301 L46.237,92.412 L20.986,76.066 L20.986,38.817 L49.655,19.992 L55.029,19.992 L55.029,56.359 L55.156,56.359 L70.569,56.359 L70.677,56.359 L70.677,19.992 L76.026,19.992 L104.711,38.817 L104.711,76.066 L79.410,92.491 L89.136,221.352 ZM97.161,71.962 L97.161,42.800 L97.092,42.800 L78.237,30.495 L78.227,30.495 L78.227,63.927 L47.479,63.927 L47.479,30.573 L47.411,30.495 L28.477,42.957 L28.536,42.957 L28.536,71.956 L28.555,71.956 L54.095,88.499 L44.438,217.110 C47.992,218.852 55.455,221.940 62.589,221.940 C69.694,221.940 77.459,218.788 81.210,217.032 L71.601,88.499 L97.161,71.962 ZM62.853,217.113 C58.120,217.113 54.295,213.272 54.295,208.550 C54.295,203.808 58.120,199.967 62.853,199.967 C67.567,199.967 71.410,203.808 71.410,208.550 C71.410,213.272 67.567,217.113 62.853,217.113 Z" class="cls-1"/>
</svg>
