<svg xmlns="http://www.w3.org/2000/svg" xmlns:xlink="http://www.w3.org/1999/xlink" preserveAspectRatio="xMidYMid" width="250" height="250" viewBox="0 0 250 250">
  <defs>
    <style>
      .cls-1, .cls-2 {
        stroke: #000;
        fill: none;
        fill-rule: evenodd;
      }

      .cls-1 {
        stroke-width: 6px;
      }

      .cls-2 {
        stroke-width: 3px;
      }
    </style>
  </defs>
  <path d="M234.109,38.983 C232.529,35.144 228.801,32.661 224.610,32.661 L194.641,32.661 C194.573,27.853 194.320,24.996 194.320,24.996 L124.504,24.996 L54.672,24.996 C54.672,24.996 54.429,27.853 54.359,32.661 L24.392,32.661 C20.199,32.661 16.471,35.144 14.894,38.983 C10.826,48.890 21.042,88.014 39.530,103.866 C46.302,109.668 54.512,113.269 63.727,114.557 C66.257,115.398 68.228,117.229 68.032,118.666 C67.699,121.068 62.930,121.484 64.931,126.186 C67.150,131.424 79.374,128.785 81.252,120.440 C87.704,127.233 95.682,132.880 105.534,136.610 C118.293,141.444 109.333,192.575 109.333,197.851 C109.333,197.851 88.972,197.851 85.379,202.927 C83.155,206.071 83.584,209.696 83.584,209.696 C83.584,209.696 70.412,213.646 70.412,218.721 C70.412,223.799 70.412,225.004 70.412,225.004 L124.504,225.004 L178.593,225.004 C178.593,225.004 178.593,223.799 178.593,218.721 C178.593,213.646 165.416,209.696 165.416,209.696 C165.416,209.696 165.850,206.071 163.621,202.927 C160.025,197.851 139.666,197.851 139.666,197.851 C139.666,192.575 130.707,141.444 143.465,136.610 C153.322,132.880 161.299,127.233 167.750,120.440 C169.628,128.785 181.858,131.424 184.074,126.186 C186.075,121.484 181.303,121.068 180.968,118.666 C180.777,117.229 182.753,115.398 185.275,114.557 C194.495,113.269 202.698,109.668 209.470,103.866 C227.963,88.014 238.174,48.890 234.109,38.983 ZM24.392,41.483 C27.544,41.483 45.262,41.483 54.447,41.483 C55.006,58.249 58.108,84.747 70.698,106.271 C60.944,106.124 52.594,103.143 45.831,97.340 C28.331,82.332 20.102,41.483 24.392,41.483 ZM203.171,97.340 C196.401,103.143 188.059,106.124 178.297,106.271 C190.892,84.747 193.999,58.249 194.553,41.483 C203.731,41.483 221.461,41.483 224.610,41.483 C228.901,41.483 220.671,82.332 203.171,97.340 Z" class="cls-1"/>
  <path d="M147.142,59.466 L151.004,57.256 L147.142,55.047 L150.495,52.135 L146.272,50.714 L148.987,47.209 L144.565,46.633 L146.538,42.670 L142.087,42.958 L143.243,38.691 L138.933,39.835 L139.225,35.427 L135.225,37.379 L134.645,33.000 L131.105,35.689 L129.672,31.506 L126.731,34.827 L124.500,31.001 L122.271,34.827 L119.331,31.506 L117.896,35.689 L114.358,33.000 L113.777,37.379 L109.776,35.426 L110.068,39.834 L105.760,38.690 L106.914,42.958 L102.463,42.669 L104.436,46.633 L100.014,47.209 L102.729,50.714 L98.505,52.133 L101.859,55.047 L97.996,57.256 L101.859,59.466 L98.505,62.378 L102.729,63.799 L100.014,67.303 L104.436,67.881 L102.463,71.842 L106.913,71.555 L105.759,75.821 L110.068,74.678 L109.775,79.086 L111.522,78.235 L102.043,118.921 L113.338,131.322 L124.483,83.483 L124.499,83.512 L124.644,83.261 L135.813,131.999 L147.155,120.051 L137.584,78.285 L139.225,79.087 L138.933,74.678 L143.240,75.822 L142.087,71.555 L146.537,71.843 L144.565,67.881 L148.987,67.304 L146.272,63.799 L150.495,62.379 L147.142,59.466 Z" class="cls-2"/>
</svg>
